<?xml version="1.0" encoding="utf-8"?>
<!-- Generator: Adobe Illustrator 28.2.0, SVG Export Plug-In . SVG Version: 6.00 Build 0)  -->
<svg version="1.1" id="Capa_1" xmlns="http://www.w3.org/2000/svg" xmlns:xlink="http://www.w3.org/1999/xlink" x="0px" y="0px"
	 viewBox="0 0 1500 402.91" style="enable-background:new 0 0 1500 402.91;" xml:space="preserve">
<style type="text/css">
	.st0{fill:#882EF2;}
	.st1{fill:#FFFFFF;}
	.st2{opacity:0.75;fill:url(#SVGID_1_);}
	.st3{opacity:0.75;fill:url(#SVGID_00000165937977419318964850000000494990485282729390_);}
	.st4{opacity:0.75;fill:url(#SVGID_00000122693226333184859560000003422006189147441536_);}
</style>
<g>
	<g>
		<path class="st0" d="M362.62,218.16l16.73,18.14c-10.08,11.49-25.19,17.53-44.74,17.53c-37.49,0-61.87-23.58-61.87-55.83
			c0-32.45,24.59-55.83,58.04-55.83c30.63,0,55.83,20.15,56.03,54.82l-80.21,15.52c4.64,10.68,14.71,16.12,28.82,16.12
			C346.9,228.64,355.16,225.22,362.62,218.16z M303.56,194.78l52.8-10.28c-3.02-11.08-12.5-18.54-25.6-18.54
			C315.05,165.96,304.17,176.44,303.56,194.78z"/>
		<path class="st0" d="M512.16,102.68v149.54h-30.03v-12.5c-7.86,9.47-19.35,14.11-33.86,14.11c-30.63,0-54.22-21.77-54.22-55.83
			c0-34.06,23.58-55.83,54.22-55.83c13.3,0,24.59,4.23,32.45,13.1v-52.6H512.16z M481.33,198.01c0-18.74-12.09-30.03-27.61-30.03
			c-15.72,0-27.81,11.29-27.81,30.03s12.09,30.03,27.81,30.03C469.24,228.04,481.33,216.75,481.33,198.01z"/>
		<path class="st0" d="M644.18,143.79v108.43h-29.83v-12.9c-8.26,9.47-20.36,14.51-33.66,14.51c-27.21,0-46.35-15.32-46.35-48.77
			v-61.27h31.44v56.63c0,18.14,8.06,26.2,21.97,26.2c14.51,0,24.99-9.27,24.99-29.22v-53.61H644.18z"/>
		<path class="st1" d="M850.36,190.15v62.07h-31.44v-57.24c0-17.53-7.86-25.6-20.56-25.6c-14.11,0-23.99,9.07-23.99,28.42v54.42
			h-31.44v-57.24c0-17.53-7.46-25.6-20.56-25.6c-13.91,0-23.78,9.07-23.78,28.42v54.42h-31.44V143.79h30.03v12.5
			c8.06-9.27,20.15-14.11,34.06-14.11c15.12,0,28.01,5.85,35.67,17.73c8.67-11.08,22.77-17.73,39.1-17.73
			C831.82,142.18,850.36,157.09,850.36,190.15z"/>
		<path class="st1" d="M955.37,218.16l16.73,18.14c-10.08,11.49-25.19,17.53-44.74,17.53c-37.49,0-61.87-23.58-61.87-55.83
			c0-32.45,24.59-55.83,58.04-55.83c30.63,0,55.83,20.15,56.03,54.82l-80.21,15.52c4.63,10.68,14.71,16.12,28.82,16.12
			C939.65,228.64,947.92,225.22,955.37,218.16z M896.32,194.78l52.8-10.28c-3.02-11.08-12.5-18.54-25.6-18.54
			C907.81,165.96,896.93,176.44,896.32,194.78z M929.17,129.89h-24.59l27.21-29.02h33.86L929.17,129.89z"/>
		<path class="st1" d="M1059.78,246.98c-6.45,4.64-15.92,6.85-25.39,6.85c-25.8,0-40.51-13.1-40.51-38.9v-95.13h31.44v26.4h26.8
			v24.19h-26.8v44.14c0,9.27,4.84,14.31,13.3,14.31c4.64,0,9.27-1.41,12.9-4.03L1059.78,246.98z"/>
		<path class="st1" d="M1138.58,142.18v29.02c-2.62-0.2-4.63-0.4-7.05-0.4c-17.33,0-28.82,9.47-28.82,30.23v51.19h-31.44V143.79
			h30.03v14.31C1108.96,147.62,1121.85,142.18,1138.58,142.18z"/>
		<path class="st1" d="M1147.25,111.14c0-9.88,7.86-17.53,19.55-17.53c11.69,0,19.55,7.26,19.55,16.93
			c0,10.48-7.86,18.14-19.55,18.14C1155.11,128.68,1147.25,121.02,1147.25,111.14z M1151.08,143.79h31.44v108.43h-31.44V143.79z"/>
		<path class="st1" d="M1197.44,198.01c0-32.65,25.19-55.83,60.46-55.83c22.77,0,40.71,9.88,48.57,27.61l-24.39,13.1
			c-5.85-10.28-14.51-14.91-24.39-14.91c-15.92,0-28.42,11.08-28.42,30.03s12.5,30.03,28.42,30.03c9.88,0,18.54-4.43,24.39-14.91
			l24.39,13.3c-7.86,17.33-25.8,27.41-48.57,27.41C1222.63,253.83,1197.44,230.66,1197.44,198.01z"/>
		<path class="st1" d="M1427,143.79v108.43h-30.03v-12.5c-7.86,9.47-19.35,14.11-33.86,14.11c-30.64,0-54.22-21.77-54.22-55.83
			c0-34.06,23.58-55.83,54.22-55.83c13.3,0,24.59,4.23,32.45,13.1v-11.49H1427z M1396.16,198.01c0-18.74-12.09-30.03-27.61-30.03
			c-15.72,0-27.81,11.29-27.81,30.03s12.09,30.03,27.81,30.03C1384.07,228.04,1396.16,216.75,1396.16,198.01z"/>
	</g>
	
		<linearGradient id="SVGID_1_" gradientUnits="userSpaceOnUse" x1="177.513" y1="201.4545" x2="272.8055" y2="201.4545" gradientTransform="matrix(1 0 0 1 -104.513 0)">
		<stop  offset="0" style="stop-color:#D6BBF6"/>
		<stop  offset="1" style="stop-color:#882EF2"/>
	</linearGradient>
	<path class="st2" d="M73,93.21V309.7c0,3.14,3.41,5.09,6.11,3.5l87.17-51.12c1.24-0.73,2.01-2.06,2.01-3.5V144.99
		c0-1.43-0.76-2.76-1.99-3.49L79.13,89.72C76.43,88.11,73,90.06,73,93.21z"/>
	
		<linearGradient id="SVGID_00000029762640524118289680000008631165387952168123_" gradientUnits="userSpaceOnUse" x1="205.2128" y1="201.4545" x2="309.3837" y2="201.4545" gradientTransform="matrix(1 0 0 1 -104.513 0)">
		<stop  offset="0" style="stop-color:#D6BBF6"/>
		<stop  offset="1" style="stop-color:#882EF2"/>
	</linearGradient>
	<path style="opacity:0.75;fill:url(#SVGID_00000029762640524118289680000008631165387952168123_);" d="M100.7,82.46v237.98
		c0,3.14,3.41,5.09,6.11,3.5l96.05-56.33c1.24-0.73,2.01-2.06,2.01-3.5v-124.6c0-1.43-0.76-2.76-1.99-3.49l-96.05-57.05
		C104.13,77.37,100.7,79.32,100.7,82.46z"/>
	
		<linearGradient id="SVGID_00000045597170039960855940000008716615682148158650_" gradientUnits="userSpaceOnUse" x1="232.9679" y1="201.4545" x2="345.5283" y2="201.4545" gradientTransform="matrix(1 0 0 1 -104.513 0)">
		<stop  offset="0" style="stop-color:#D6BBF6"/>
		<stop  offset="1" style="stop-color:#882EF2"/>
	</linearGradient>
	<path style="opacity:0.75;fill:url(#SVGID_00000045597170039960855940000008716615682148158650_);" d="M128.45,72.31V330.6
		c0,3.14,3.41,5.09,6.11,3.5l104.44-61.25c1.24-0.73,2.01-2.06,2.01-3.5V134.34c0-1.43-0.76-2.76-1.99-3.49L134.59,68.82
		C131.88,67.21,128.45,69.16,128.45,72.31z"/>
</g>
</svg>
